<?xml version="1.0" standalone="no"?>
<!DOCTYPE svg PUBLIC "-//W3C//DTD SVG 20010904//EN"
 "http://www.w3.org/TR/2001/REC-SVG-20010904/DTD/svg10.dtd">
<svg version="1.0" xmlns="http://www.w3.org/2000/svg"
 width="236.000000pt" height="236.000000pt" viewBox="0 0 236.000000 236.000000"
 preserveAspectRatio="xMidYMid meet">
<metadata>
Created by potrace 1.11, written by Peter Selinger 2001-2013
</metadata>
<g transform="translate(0.000000,236.000000) scale(0.100000,-0.100000)"
fill="#000000" stroke="none">
<path d="M526 2088 c6 -88 8 -95 40 -128 33 -35 34 -38 34 -118 0 -64 -3 -84
-15 -88 -8 -4 -15 -17 -15 -30 0 -19 -5 -24 -25 -24 l-25 0 0 -374 0 -373 38
-7 c20 -3 88 -6 150 -6 107 0 112 1 103 19 -7 12 -18 17 -34 14 -31 -6 -45 32
-18 47 15 8 16 15 7 54 -7 29 -17 46 -28 49 -26 7 -25 57 1 57 27 0 40 86 15
104 -23 17 -3 57 25 49 28 -7 74 62 58 88 -17 27 12 56 40 39 28 -18 94 26 86
57 -6 28 35 44 49 19 6 -11 17 -14 34 -11 13 3 35 7 49 10 17 4 25 12 25 25 0
15 7 20 25 20 18 0 25 -5 25 -20 0 -13 9 -22 28 -26 15 -3 35 -8 45 -11 11 -3
24 3 31 12 18 26 58 11 51 -18 -7 -30 59 -75 86 -59 23 15 52 -15 38 -40 -15
-26 29 -90 58 -85 31 6 46 -32 22 -53 -16 -13 -17 -20 -8 -57 8 -31 17 -43 30
-43 27 0 26 -50 0 -57 -12 -3 -23 -20 -30 -46 -5 -23 -9 -42 -8 -43 1 -1 59
-4 130 -7 l127 -5 0 338 0 339 -22 3 c-15 2 -24 11 -26 26 -2 12 -8 22 -13 22
-5 0 -9 39 -9 86 0 80 2 89 29 123 22 28 30 50 34 96 3 33 8 75 12 93 l7 32
-102 0 -103 0 7 -50 c6 -41 4 -50 -9 -50 -10 0 -15 -10 -15 -30 0 -20 -5 -30
-15 -30 -10 0 -15 10 -15 30 0 20 -5 30 -15 30 -13 0 -15 9 -9 50 l7 50 -98 0
-98 0 7 -50 c6 -41 4 -50 -9 -50 -10 0 -15 -10 -15 -30 0 -20 -5 -30 -15 -30
-10 0 -15 10 -15 30 0 24 -4 30 -20 30 -19 0 -20 4 -14 50 l7 50 -98 0 -98 0
7 -50 c6 -41 4 -50 -9 -50 -10 0 -15 -10 -15 -30 0 -20 -5 -30 -15 -30 -10 0
-15 10 -15 30 0 24 -4 30 -21 30 -18 0 -20 4 -14 23 4 12 9 34 12 50 l5 27
-102 0 -103 0 7 -50 c4 -32 3 -50 -4 -50 -5 0 -10 -13 -10 -30 0 -23 -4 -30
-20 -30 -16 0 -20 7 -20 30 0 20 -5 30 -15 30 -11 0 -13 10 -8 50 l6 50 -96 0
-97 0 6 -92z m174 70 c0 -5 -38 -8 -85 -8 -47 0 -85 3 -85 8 0 4 38 7 85 7 47
0 85 -3 85 -7z m260 0 c0 -5 -36 -8 -80 -8 -44 0 -80 3 -80 8 0 4 36 7 80 7
44 0 80 -3 80 -7z m270 0 c0 -4 -39 -8 -86 -8 -47 0 -83 3 -81 8 7 10 167 10
167 0z m260 0 c0 -5 -36 -8 -80 -8 -44 0 -80 4 -80 8 0 4 36 8 80 7 44 0 80
-3 80 -7z m270 0 c0 -5 -38 -8 -85 -8 -47 0 -85 3 -85 8 0 4 38 7 85 7 47 0
85 -3 85 -7z m-1065 -28 c-3 -5 -39 -10 -80 -10 -41 0 -77 5 -80 10 -4 6 25
10 80 10 55 0 84 -4 80 -10z m260 1 c-3 -6 -39 -10 -80 -10 -41 0 -75 4 -75
10 0 5 36 9 81 9 48 0 78 -4 74 -9z m270 0 c-3 -6 -39 -10 -80 -10 -41 0 -77
4 -80 10 -4 5 28 9 80 9 52 0 84 -4 80 -9z m265 0 c0 -6 -34 -10 -75 -10 -41
0 -77 4 -80 10 -4 5 26 9 74 9 45 0 81 -4 81 -9z m265 -1 c-3 -5 -39 -10 -80
-10 -41 0 -77 5 -80 10 -4 6 25 10 80 10 55 0 84 -4 80 -10z m-1065 -35 c0
-12 -15 -15 -75 -15 -60 0 -75 3 -75 15 0 12 15 15 75 15 60 0 75 -3 75 -15z
m170 0 c0 -9 -9 -15 -25 -15 -16 0 -25 6 -25 15 0 9 9 15 25 15 16 0 25 -6 25
-15z m90 0 c0 -9 -9 -15 -24 -15 -13 0 -26 7 -30 15 -4 11 2 15 24 15 20 0 30
-5 30 -15z m178 3 c-7 -20 -48 -23 -48 -4 0 11 9 16 26 16 16 0 24 -5 22 -12z
m90 -5 c6 -19 -45 -16 -52 3 -5 12 0 15 21 12 14 -2 28 -9 31 -15z m176 2 c-4
-8 -17 -15 -30 -15 -15 0 -24 6 -24 15 0 10 10 15 30 15 22 0 28 -4 24 -15z
m86 -1 c0 -10 -7 -14 -22 -12 -32 5 -35 28 -4 28 17 0 26 -5 26 -16z m270 1
c0 -12 -15 -15 -75 -15 -60 0 -75 3 -75 15 0 12 15 15 75 15 60 0 75 -3 75
-15z m-860 -41 c0 -19 -4 -34 -10 -34 -5 0 -10 18 -10 41 0 24 4 38 10 34 6
-3 10 -22 10 -41z m270 0 c0 -20 -5 -34 -12 -34 -11 0 -14 21 -9 73 1 5 6 5
11 2 6 -3 10 -22 10 -41z m260 6 c0 -22 -4 -40 -10 -40 -11 0 -14 63 -3 73 11
12 13 8 13 -33z m-700 -20 c0 -19 -7 -20 -90 -20 -83 0 -90 1 -90 20 0 19 7
20 90 20 83 0 90 -1 90 -20z m140 0 c0 -17 -7 -20 -40 -20 -33 0 -40 3 -40 20
0 17 7 20 40 20 33 0 40 -3 40 -20z m120 0 c0 -17 -7 -20 -40 -20 -33 0 -40 3
-40 20 0 17 7 20 40 20 33 0 40 -3 40 -20z m140 0 c0 -17 -7 -20 -40 -20 -33
0 -40 3 -40 20 0 17 7 20 40 20 33 0 40 -3 40 -20z m130 0 c0 -17 -7 -20 -40
-20 -33 0 -40 3 -40 20 0 17 7 20 40 20 33 0 40 -3 40 -20z m140 0 c0 -17 -7
-20 -40 -20 -33 0 -40 3 -40 20 0 17 7 20 40 20 33 0 40 -3 40 -20z m130 0 c0
-17 -7 -20 -40 -20 -33 0 -40 3 -40 20 0 17 7 20 40 20 33 0 40 -3 40 -20z
m230 0 c0 -18 -7 -20 -85 -20 -78 0 -85 2 -85 20 0 18 7 20 85 20 78 0 85 -2
85 -20z m-1121 -67 c-13 -16 -24 -29 -25 -30 0 -2 -13 11 -29 27 l-29 30 54 0
53 0 -24 -27z m194 -1 c15 -15 27 -31 27 -35 0 -4 -52 -7 -116 -7 l-116 0 29
34 c26 32 32 35 89 35 53 1 63 -2 87 -27z m76 -3 l-21 -30 -29 27 c-16 15 -29
29 -29 31 0 2 23 3 51 3 l50 0 -22 -31z m194 3 c15 -15 27 -31 27 -35 0 -4
-49 -7 -110 -7 -60 0 -110 3 -110 7 0 4 12 20 27 35 23 24 34 28 83 28 49 0
60 -4 83 -28z m107 25 c0 -2 -13 -16 -29 -31 l-29 -27 -21 30 -22 31 50 0 c28
0 51 -1 51 -3z m173 -32 l28 -35 -116 0 c-63 0 -115 3 -115 7 0 4 12 20 27 35
24 25 34 28 87 28 58 0 63 -2 89 -35z m72 5 c-16 -16 -29 -29 -29 -27 -1 1
-12 14 -25 30 l-24 27 53 0 54 0 -29 -30z m199 -5 l27 -35 -117 0 c-109 0
-116 1 -103 18 39 51 41 52 104 52 60 0 64 -2 89 -35z m74 5 l-22 -30 -28 27
c-15 15 -28 28 -28 30 0 2 23 3 50 3 l51 0 -23 -30z m-848 -75 l0 -25 -130 0
-130 0 0 25 0 25 130 0 130 0 0 -25z m270 0 l0 -25 -130 0 -130 0 0 25 0 25
130 0 130 0 0 -25z m270 0 l0 -25 -130 0 -130 0 0 25 0 25 130 0 130 0 0 -25z
m280 0 l0 -25 -129 0 -129 0 -4 25 -5 25 133 0 134 0 0 -25z m-952 -57 c-3
-21 -9 -23 -65 -26 -62 -3 -63 -2 -63 23 0 24 2 25 66 25 62 0 65 -1 62 -22z
m272 -3 l0 -25 -130 0 -130 0 0 25 0 25 130 0 130 0 0 -25z m270 0 l0 -25
-130 0 -130 0 0 25 0 25 130 0 130 0 0 -25z m270 0 l0 -25 -130 0 -130 0 0 25
0 25 130 0 130 0 0 -25z m140 0 c0 -25 -1 -26 -62 -23 -57 3 -63 5 -66 26 -3
21 0 22 62 22 64 0 66 -1 66 -25z m-822 -57 c-3 -22 -7 -23 -130 -26 l-128 -3
0 26 0 25 131 0 c130 0 130 0 127 -22z m272 -3 l0 -25 -130 0 -130 0 0 25 0
25 130 0 130 0 0 -25z m270 0 l0 -25 -130 0 -130 0 0 25 0 25 130 0 130 0 0
-25z m280 0 l0 -25 -129 0 -129 0 -4 25 -5 25 133 0 134 0 0 -25z"/>
<path d="M1090 1330 l0 -70 50 0 50 0 0 70 0 70 -50 0 -50 0 0 -70z"/>
<path d="M1004 1361 c-29 -18 -84 -79 -84 -94 0 -4 27 -7 60 -7 l60 0 0 60 c0
33 -1 60 -2 60 -2 0 -17 -9 -34 -19z"/>
<path d="M1250 1321 l0 -61 61 0 60 0 -18 31 c-16 28 -54 62 -90 83 -10 5 -13
-8 -13 -53z"/>
<path d="M894 1186 c-3 -8 -4 -29 -2 -48 l3 -33 73 -3 72 -3 0 51 0 50 -70 0
c-51 0 -72 -4 -76 -14z"/>
<path d="M1092 1153 l3 -48 48 -3 47 -3 0 50 0 51 -51 0 -50 0 3 -47z"/>
<path d="M1250 1150 l0 -50 69 0 c65 0 69 1 75 25 4 14 4 36 0 50 -6 24 -10
25 -75 25 l-69 0 0 -50z"/>
<path d="M920 1042 c0 -20 53 -82 70 -82 39 0 50 11 50 51 l0 39 -60 0 c-33 0
-60 -3 -60 -8z"/>
<path d="M1097 1043 c-4 -3 -7 -19 -7 -35 0 -30 10 -33 69 -22 26 6 31 11 31
35 0 27 -2 29 -43 29 -24 0 -47 -3 -50 -7z"/>
<path d="M1250 1025 c0 -24 2 -24 48 -18 90 11 99 43 12 43 -57 0 -60 -1 -60
-25z"/>
<path d="M1350 725 c-52 -7 -171 -25 -265 -41 -145 -24 -199 -28 -367 -28
-109 -1 -198 -2 -198 -4 0 -1 12 -26 26 -55 58 -113 209 -227 507 -382 l93
-49 130 69 c195 103 303 173 365 236 59 60 115 158 125 220 l6 36 -47 6 c-73
10 -269 6 -375 -8z"/>
</g>
</svg>
